# xmcd
#
# Track frame offsets: 
#        150
#        15045
#        30094
#        43224
#        57780
#        68224
#        80476
#        95211
#        121871
#        137461
#        151885
#        163838
#        179771
#        194029
#        207675
#        220120
#        234261
#        252766
#        264342
#        278255
#        296277
#        318424
#        330888
#
# Disc length: 4620 seconds
#
# Revision: 0
# Processed by: cddbd v1.5.2PL0 Copyright (c) Steve Scherf et al.
# Submitted via: ExactAudioCopyFreeDBPlugin 1.0
#
DISCID=39120a17
DTITLE=Various Artist - Behind Closed Doors: Where Country Meets Soul
DYEAR=2012
DGENRE=Soul
TTITLE0=Aaron Neville - The Grand Tour
TTITLE1=Solomon Burke - He'll Have to Go
TTITLE2=Percy Sledge - Take Time to Know Her
TTITLE3=Esther Phillips - I Saw Me
TTITLE4=Moses and Joshua Dillard - My Elusive Dream
TTITLE5=Ann Peebles - Hangin' On
TTITLE6=Bobby Sheen - My Shoes Keep Walking Back to You
TTITLE7=Tami Lynn - Wings Upon Your Horns
TTITLE8=The Limelights - Before the Next Teardrop Falls
TTITLE9=Al Green - I'm So Lonesome I Could Cry
TTITLE10=James Carr - Life Turned Her That Way
TTITLE11=Candi Staton - He Called Me Baby
TTITLE12=Z.Z. Hill - The Chokin' Kind
TTITLE13=Joe Simon - Yours, Love
TTITLE14=Cookie Jackson - Your Good Girl's Gonna Go Bad
TTITLE15=Arthur Alexander - Detroit City
TTITLE16=Tony Borders - Gentle On My Mind
TTITLE17=Bettye Swann - Don't Touch Me
TTITLE18=Clarence Carter - Set Me Free
TTITLE19=Little Milton - Behind Closed Doors
TTITLE20=Millie Jackson - If You're Not Back In Love By Monday
TTITLE21=Joe Tex - Skip a Rope
TTITLE22=Brook Benton - She Even Woke Me Up to Say Goodbye
EXTD=
EXTT0=
EXTT1=
EXTT2=
EXTT3=
EXTT4=
EXTT5=
EXTT6=
EXTT7=
EXTT8=
EXTT9=
EXTT10=
EXTT11=
EXTT12=
EXTT13=
EXTT14=
EXTT15=
EXTT16=
EXTT17=
EXTT18=
EXTT19=
EXTT20=
EXTT21=
EXTT22=
PLAYORDER=
